# xmcd CD database file
#
# Track frame offsets:
#	150
#	22620
#	40527
#	62272
#	84315
#	105342
#	129785
#	148452
#	171947
#	190430
#	210265
#
# Disc length: 3136 seconds
#
# Revision: 0
# Processed by: cddbd v1.4PL0 Copyright (c) Steve Scherf et al.
# Submitted via: CDex 1.50beta10
#
DISCID=7f0c3e0b
DTITLE=Latimore - You're Welcome to Ride
DYEAR=1900
DGENRE=Blues
TTITLE0=Country Woman
TTITLE1=You Can Count On Me
TTITLE2=Take Me Just as I Am
TTITLE3=You're welcome to ride
TTITLE4=You've still got the touch
TTITLE5=Midnight Snuggin
TTITLE6=One Love Too Late
TTITLE7=Pretty WOman
TTITLE8=I'm a Married Man
TTITLE9=I'm an Old Dog
TTITLE10=You're not Feelin it
EXTD=
EXTT0=
EXTT1=
EXTT2=
EXTT3=
EXTT4=
EXTT5=
EXTT6=
EXTT7=
EXTT8=
EXTT9=
EXTT10=
PLAYORDER=
